<svg width="16" height="16" viewBox="0 0 16 16" fill="none" xmlns="http://www.w3.org/2000/svg">
<path d="M7.10329 1.4833C7.47013 0.740134 8.52987 0.740134 8.89671 1.4833L10.3426 4.41243C10.4881 4.70728 10.7693 4.91174 11.0946 4.95929L14.3296 5.43212C15.1495 5.55197 15.4762 6.55981 14.8827 7.13797L12.5435 9.41635C12.3076 9.64609 12.1999 9.97722 12.2556 10.3017L12.8074 13.5193C12.9475 14.3363 12.09 14.9592 11.3564 14.5734L8.46545 13.0531C8.17407 12.8999 7.82593 12.8999 7.53455 13.0531L4.64363 14.5734C3.91 14.9592 3.05246 14.3363 3.19257 13.5193L3.74442 10.3017C3.80008 9.97722 3.69242 9.64609 3.45655 9.41635L1.11735 7.13797C0.523755 6.55981 0.850537 5.55197 1.67045 5.43212L4.90537 4.95929C5.23072 4.91174 5.51191 4.70728 5.65745 4.41243L7.10329 1.4833Z" stroke="#FFB800" stroke-linecap="round" stroke-linejoin="round"/>
</svg>
